<?xml version="1.0" encoding="utf-8"?>
<!-- Generator: Adobe Illustrator 23.0.3, SVG Export Plug-In . SVG Version: 6.00 Build 0)  -->
<svg version="1.1" id="Capa_1" xmlns="http://www.w3.org/2000/svg" xmlns:xlink="http://www.w3.org/1999/xlink" x="0px" y="0px"
	 viewBox="0 0 100 100" style="enable-background:new 0 0 100 100;" xml:space="preserve">
<style type="text/css">
	.st0{fill:#C6C6C6;}
</style>
<g>
	<path class="st0" d="M53.1,60.13h-8.78l0.1-0.58c0-0.03,0.39-2.86-2.94-7.12c-0.6-0.53-1.19-1.21-1.7-1.95l-0.13-0.13l0.02-0.02
		c-1.22-1.87-1.84-3.97-1.84-6.14c0-6.17,5.02-11.19,11.19-11.19s11.19,5.02,11.19,11.19c0,2.17-0.63,4.27-1.81,6.1l-0.25-0.16
		l0.2,0.23c-0.51,0.79-1.18,1.56-1.96,2.24c-3.18,4.14-2.81,6.93-2.8,6.96l0.09,0.57L53.1,60.13z M45.43,59.13h7.15
		c0.02-1.11,0.4-3.73,3.09-7.22c0.75-0.67,1.35-1.35,1.84-2.1l0.05-0.08c1.08-1.66,1.65-3.58,1.65-5.55
		c0-5.62-4.57-10.19-10.19-10.19s-10.19,4.57-10.19,10.19c0,1.98,0.57,3.89,1.64,5.54l0.08,0.12c0.51,0.74,1.05,1.36,1.65,1.9
		C45.01,55.34,45.41,58.01,45.43,59.13z"/>
</g>
<g>
	<polygon class="st0" points="53.02,61.95 45.02,62.95 45.02,62 53.02,61 	"/>
</g>
<g>
	<polygon class="st0" points="53.02,64.47 45.02,65.47 45.02,64.53 53.02,63.53 	"/>
</g>
<g>
	<polygon class="st0" points="53.02,67 45.02,68 45.02,67.05 53.02,66.05 	"/>
</g>
<g>
	<path class="st0" d="M40.78,44.28c0-0.06-0.37-6.4,6.23-7.66l0.19,0.98c-5.74,1.09-5.43,6.38-5.42,6.6L40.78,44.28z"/>
</g>
<path class="st0" d="M47.1,69.28h3.98c0,0-0.71,1.07-1.99,1.07C47.81,70.35,47.1,69.28,47.1,69.28z"/>
</svg>
